<svg enable-background="new 0 0 390 200" viewBox="0 0 390 200" xmlns="http://www.w3.org/2000/svg"><path d="m19.7 58.1 12.6-1.9c.5 2.5 1.6 4.3 3.3 5.6 1.6 1.3 3.9 1.9 6.9 1.9 3.3 0 5.7-.6 7.3-1.8 1.1-.8 1.7-2 1.7-3.4 0-1-.3-1.8-.9-2.4s-2-1.2-4.2-1.7c-10.1-2.3-16.6-4.3-19.3-6.2-3.8-2.6-5.6-6.2-5.6-10.8 0-4.1 1.6-7.6 4.9-10.5 3.3-2.8 8.3-4.2 15.1-4.2 6.5 0 11.3 1.1 14.5 3.2s5.3 5.3 6.5 9.5l-11.9 2.2c-.5-1.9-1.5-3.3-2.9-4.3s-3.4-1.5-6.1-1.5c-3.3 0-5.7.5-7.1 1.4-1 .7-1.4 1.5-1.4 2.6 0 .9.4 1.7 1.3 2.3 1.1.8 5 2 11.7 3.6 6.7 1.5 11.4 3.4 14 5.6 2.6 2.3 3.9 5.4 3.9 9.4 0 4.4-1.8 8.2-5.5 11.3-3.6 3.2-9 4.7-16.2 4.7-6.5 0-11.6-1.3-15.4-4-3.5-2.5-6-6.1-7.2-10.6z"/><path d="m72.2 47.1c0-4.2 1-8.3 3.1-12.2s5-6.9 8.7-9c3.8-2.1 8-3.1 12.6-3.1 7.2 0 13.1 2.4 17.7 7.1s6.9 10.6 6.9 17.8-2.3 13.2-7 18c-4.6 4.8-10.5 7.1-17.5 7.1-4.4 0-8.5-1-12.5-3s-7-4.9-9-8.7-3-8.5-3-14zm12.9.7c0 4.7 1.1 8.4 3.4 10.9 2.2 2.5 5 3.8 8.3 3.8s6-1.3 8.3-3.8c2.2-2.5 3.3-6.2 3.3-11 0-4.7-1.1-8.3-3.3-10.8s-5-3.8-8.3-3.8-6 1.3-8.3 3.8-3.4 6.2-3.4 10.9z"/><path d="m131.1 71.7v-66h12.6v66.1h-12.6z"/><path d="m187.8 71.7v-7.2c-1.7 2.6-4 4.6-6.8 6-2.8 1.5-5.8 2.2-8.9 2.2-3.2 0-6.1-.7-8.6-2.1s-4.4-3.4-5.5-5.9c-1.1-2.6-1.7-6.1-1.7-10.6v-30.2h12.6v22c0 6.7.2 10.9.7 12.4s1.3 2.7 2.5 3.6 2.8 1.3 4.7 1.3c2.1 0 4.1-.6 5.8-1.8s2.9-2.7 3.5-4.4c.6-1.8.9-6.1.9-12.9v-20.2h12.6v47.9h-11.8z"/><path d="m234.3 23.9v10.1h-8.6v19.3c0 3.9.1 6.2.2 6.8.2.6.5 1.2 1.1 1.6s1.3.6 2.1.6c1.2 0 2.8-.4 5.1-1.2l1.1 9.8c-2.9 1.3-6.2 1.9-9.9 1.9-2.3 0-4.3-.4-6.1-1.1-1.8-.8-3.2-1.8-4-3s-1.4-2.9-1.8-4.9c-.3-1.5-.4-4.4-.4-8.9v-20.9h-5.8v-10.1h5.8v-9.5l12.6-7.4v16.9z"/><path d="m243 17.4v-11.7h12.6v11.7zm0 54.3v-47.8h12.6v47.9h-12.6z"/><path d="m265.6 47.1c0-4.2 1-8.3 3.1-12.2s5-6.9 8.7-9c3.8-2.1 8-3.1 12.6-3.1 7.2 0 13.1 2.4 17.7 7.1s6.9 10.6 6.9 17.8-2.3 13.2-7 18c-4.6 4.8-10.5 7.1-17.5 7.1-4.4 0-8.5-1-12.5-3s-7-4.9-9-8.7-3-8.5-3-14zm12.9.7c0 4.7 1.1 8.4 3.4 10.9 2.2 2.5 5 3.8 8.3 3.8s6-1.3 8.3-3.8c2.2-2.5 3.3-6.2 3.3-11 0-4.7-1.1-8.3-3.3-10.8s-5-3.8-8.3-3.8-6 1.3-8.3 3.8-3.4 6.2-3.4 10.9z"/><path d="m367.7 71.7h-12.6v-24.4c0-5.2-.3-8.5-.8-10s-1.4-2.7-2.6-3.5-2.7-1.3-4.4-1.3c-2.2 0-4.1.6-5.9 1.8-1.7 1.2-2.9 2.8-3.6 4.8-.6 2-1 5.6-1 11v21.7h-12.6v-47.9h11.7v7c4.1-5.4 9.4-8.1 15.7-8.1 2.8 0 5.3.5 7.6 1.5s4 2.3 5.2 3.9 2 3.3 2.5 5.3.7 4.8.7 8.5v29.7z"/><path d="m22.1 194.3h27.4v-71.8l51.5 65.7s5.4 6.1 11.9 6.1h48.4s-37.7-13.8-37.7-54.2 37.7-53.4 37.7-53.4h-49.2s-8.1 2.7-8.1 10.8 1.2 56.1 1.2 56.1l-53-66.8h-30.1z"/><path d="m200.5 86.7h33s8.8-.4 11.5 8.8 14.2 54.9 14.2 54.9l18.4-63.8h30l17.7 63.8 18.1-63.8h28.4l-29.2 107.6h-30.4l-20.2-68.1-15.4 59.7s-4.2 8.5-11.5 8.5-64.5 0-64.5 0 36.9-16.5 36.9-53.8c-.1-40.2-37-53.8-37-53.8z"/><circle cx="181.6" cy="140.3" fill="#cc202a" r="22.9"/></svg>